<?xml version="1.0" encoding="UTF-8"?> <svg xmlns="http://www.w3.org/2000/svg" width="815.434" height="415.483" viewBox="0 0 815.434 415.483"><g transform="translate(-365 -355)"><path d="M655.578,1482.473c-1.728.217-4.327-.217-5.047.755-5.749,7.76-14.686,9.214-22.879,10.6a26.6,26.6,0,0,0-15.866,8.425c-4.575,5.2-9.542,5.165-15.911,4.834-6.445-8.968-15.219-9.088-25.247-5.219-4.84,1.868-10.249,2.245-16.987,3.622-5.215,5.42-11.38,12.259-18.035,18.577-3.7,3.509-6.2,7.768-9.269,11.583-6.112,7.58-13.814,13.864-20.859,20.684l-1.043-.932-.38,8.448c-2.709,7.634-10.563,13.686-6.961,22.665l-7.691,10.839-11.144-3.534c-1.94,1.171-3.907,1.982-5.391,3.328a97.618,97.618,0,0,0-9.074,9.1c-7.255,8.573-14.8,16.972-21.269,26.129-5.117,7.248-10.879,15.1-12.528,23.45-1.6,8.109-4.638,15.784-5.989,23.944a29.881,29.881,0,0,1-10.688,18.415c-2.641,2.19-3.927,5.99-5.972,8.961-2.285,3.319-4.419,6.833-7.2,9.7-2.832,2.923-2.628,6.324-3.634,9.71-2.778,9.356,1.237,18.52-.954,27.464a17.89,17.89,0,0,1-6.758,10.763c-3.871,2.919-5.894,8.346-8.6,12.75a3.348,3.348,0,0,0-.016,2.558c3.469,9.118-3.353,17.685-1.413,26.734.158.737-.8,1.714-1.3,2.707l4.251,7.572-1.044.154.488,11.086,1.14.138-6.758,8.751c1.931.354,3.9,1.285,4.493.731,4.782-4.495,13.5-3.65,15.655-11.615,9.866-5.074,11.429-16.232,17.344-24.213,3.223-4.349,3.156-9.616,2.67-15.562-.626-7.621,2.759-15.617,4.756-23.363.291-1.129,2.415-2.456,3.755-2.531,8.559-.476,11.846-7.254,15.437-13.2,3.969-6.577,7.474-13,13.322-18.59,4.638-4.432,10.875-11.117,5.628-20.173,11.943-1.537,10.918-13.1,16.351-20.074-2.53-3.567-1.107-6.111,1.543-9.637,5.646-7.519,10.247-15.847,15.007-24,.754-1.292.106-3.411.106-5.569,5.478-4.732,11.2-9.6,16.841-14.566,6.367-5.6,13.682-8.8,22.01-10.57,7.9-1.678,20.13-1.353,26.7,2.165,2.039,19.8,14.879,29.873,33.98,35.842l24.109-26.451c10.248,1.689,19.309-.991,28.062-6.1,7.505-4.38,15.414-8.094,23.3-11.764,6.821-3.177,9.784-8.21,9.073-15.688-.546-5.772,1.391-10.845,6.508-13.567,7.62-4.054,14.49-9.9,23.921-9.981,6.016-.051,9.793,3.806,14.261,6.614,5.151,3.237,10.426,6.59,16.833,5.141,7.2-1.631,14.222-4.063,21.419-5.718,6.188-1.422,12.5-2.3,18.78-3.316,12.065-1.956,24.536-.979,36.317-5.148a11.608,11.608,0,0,1,5.154-.042c10.241,1.366,20.267,2.76,30.563-1.064a26.93,26.93,0,0,1,16.007-.6c6.971,2.069,13.709,1.32,20.122.013,6.306-1.285,10.6.626,14.489,3.822a49.848,49.848,0,0,1,25.178,4.149,208.031,208.031,0,0,0,28.513,10.334c3.437.982,7.672-.851,11.282-1.362,10.263,9.963,26.144,12.864,35.919,6.842,4.361,1.244,8.681,5.319,12.945.046-.513-2.561-1.015-5.063-1.777-8.868l7.828,3.334c7.154-2.49,14.381-4.751,22.542-3.833,7.457.839,15.081.178,22.633.178l.091,1.392,5.444-4.03c1.923-3.849,2.964-7.14,4.974-9.648,2.4-3,2.244-5.381.626-8.6-2.089-4.159-3.562-8.632-5.267-12.983-1.234-3.15-2.414-6.32-3.558-9.324-8.752,1.846-9.409,1.287-9.409-7.626l-7.065-6.749c-8.562,3.17-15.086,1.224-21.038-6.066-3.514-4.3-9.492-5.815-15.484-2.468l-8.766-13.329c-7.854-1.035-15.426-3.668-16.4-14.03h-8.064l-4.406-2.838c-8.4,3.649-15.176-3.637-23.111-4.052-1.1-.057-2.208-1.281-3.236-1.18-12.748,1.259-22.094-5.412-31.159-13.043-2.734-2.3-5.787-4.653-9.1-5.7-2.691-.85-6.058-.13-8.986.523a107.809,107.809,0,0,0-10.425,3.354c-4.818-4.193-8.676-7.989-12.964-11.2-9.755-7.313-21.412-9.118-32.862-12.318-11.537-3.224-23.654,1.1-34.892-4.837l-4.887,3.272a61.271,61.271,0,0,0-7.06-4.343c-4.126-1.845-8.064-3.722-12.857-4.467-4.041-.626-7.415-5.589-10.286-7.97H764.233l-19.358,12.435-19.279,1.5-15.529-11.506-10.348.577-1.082-1.6c-1.606,3-2.86,6.285-4.911,8.942a67.537,67.537,0,0,1-8.362,8.508c-3.676,3.324-9.246,4.977-8.654,11.777.1,1.142-3.034,3.026-4.976,3.754-1.708.638-3.839.133-5.146.133l-8.506,8.544c-.626,2.816-1.239,5.6-1.855,8.385" transform="translate(60.252 -1067.66)" fill="none" stroke-width="4" stroke="black"></path></g></svg> 