<?xml version="1.0" encoding="UTF-8"?>
<svg xmlns="http://www.w3.org/2000/svg" 
     xmlns:xlink="http://www.w3.org/1999/xlink" 
     height="1000pt" width="1000pt" 
     version="1.1" viewBox="0 0 1000 1000">
  <g opacity="1">
<path xmlns="http://www.w3.org/2000/svg" stroke="#000000" stroke-width="5.93986" fill="none" stroke-linecap="round" stroke-linejoin="round" opacity="1" d="M201.638 343.645L199.455 349.831L163.726 388.909L134.696 445.851L96.735 519.541L62.1229 593.231L55.4238 609.979L28.6274 607.746L11.8797 630.076L17.4623 673.621L57.6568 712.698L92.2689 717.165L100.199 719.89L127.997 729.446L150.327 721.631L172.658 744.519L220.668 769.641L288.776 807.603L313.404 815.233L368.048 832.166L451.787 855.613L479.7 872.361L529.943 893.574L568.135 889.25L589.118 886.875L614.799 871.244C614.799 871.244 643.828 879.06 648.293 879.06C652.76 879.06 704.12 872.361 704.12 872.361L758.828 834.399L813.538 804.253L836.814 789.097L861.549 772.99L901.743 749.543L887.228 731.68L927.423 702.65L957.569 711.582L974.316 661.339L975.433 639.008L985.482 608.862L985.745 604.368L987.715 570.901L985.482 510.61L978.783 455.9L972.084 394.491L958.257 335.341L957.877 334.58L946.403 307.403L916.257 302.938L890.578 280.608L887.228 248.228L886.111 205.8L873.83 166.722L855.965 136.576L823.587 110.897L769.994 106.43L711.32 108.664L637.129 108.664L554.507 117.596L480.817 118.712L469.597 119.144L422.758 120.945L361.349 148.858L309.99 180.121L253.048 216.965L198.338 271.675L176.008 309.637L168.192 335.316L206.154 330.85L201.638 343.645"/>
</g>
</svg>